<?xml version="1.0" encoding="utf-8" standalone="no"?>
<!DOCTYPE svg PUBLIC "-//W3C//DTD SVG 1.1//EN"
  "http://www.w3.org/Graphics/SVG/1.1/DTD/svg11.dtd">
<svg xmlns:xlink="http://www.w3.org/1999/xlink" width="1440pt" height="720pt" viewBox="0 0 1440 720" xmlns="http://www.w3.org/2000/svg" version="1.1">
 <metadata>
  <rdf:RDF xmlns:dc="http://purl.org/dc/elements/1.1/" xmlns:cc="http://creativecommons.org/ns#" xmlns:rdf="http://www.w3.org/1999/02/22-rdf-syntax-ns#">
   <cc:Work>
    <dc:type rdf:resource="http://purl.org/dc/dcmitype/StillImage"/>
    <dc:date>2024-05-12T12:31:56.460607</dc:date>
    <dc:format>image/svg+xml</dc:format>
    <dc:creator>
     <cc:Agent>
      <dc:title>Matplotlib v3.8.0, https://matplotlib.org/</dc:title>
     </cc:Agent>
    </dc:creator>
   </cc:Work>
  </rdf:RDF>
 </metadata>
 <defs>
  <style type="text/css">*{stroke-linejoin: round; stroke-linecap: butt}</style>
 </defs>
 <g id="figure_1">
  <g id="patch_1">
   <path d="M 0 720 
L 1440 720 
L 1440 0 
L 0 0 
z
" style="fill: #ffffff"/>
  </g>
  <g id="axes_1">
   <g id="PathCollection_1">
    <defs>
     <path id="m3ea2707c1e" d="M 0 3 
C 0.795609 3 1.55874 2.683901 2.12132 2.12132 
C 2.683901 1.55874 3 0.795609 3 0 
C 3 -0.795609 2.683901 -1.55874 2.12132 -2.12132 
C 1.55874 -2.683901 0.795609 -3 0 -3 
C -0.795609 -3 -1.55874 -2.683901 -2.12132 -2.12132 
C -2.683901 -1.55874 -3 -0.795609 -3 0 
C -3 0.795609 -2.683901 1.55874 -2.12132 2.12132 
C -1.55874 2.683901 -0.795609 3 0 3 
z
" style="stroke: #1f77b4"/>
    </defs>
    <g clip-path="url(#pf40d82b5ac)">
     <use xlink:href="#m3ea2707c1e" x="290.876667" y="69.76" style="fill: #1f77b4; stroke: #1f77b4"/>
     <use xlink:href="#m3ea2707c1e" x="254.21" y="33.093333" style="fill: #1f77b4; stroke: #1f77b4"/>
     <use xlink:href="#m3ea2707c1e" x="217.543333" y="69.76" style="fill: #1f77b4; stroke: #1f77b4"/>
     <use xlink:href="#m3ea2707c1e" x="254.21" y="106.426667" style="fill: #1f77b4; stroke: #1f77b4"/>
    </g>
   </g>
   <g id="line2d_1">
    <path d="M 290.876667 69.76 
L 254.21 33.093333 
" clip-path="url(#pf40d82b5ac)" style="fill: none; stroke: #ff0000; stroke-width: 5; stroke-linecap: square"/>
    <defs>
     <path id="m6a593d67c4" d="M 0 3 
C 0.795609 3 1.55874 2.683901 2.12132 2.12132 
C 2.683901 1.55874 3 0.795609 3 0 
C 3 -0.795609 2.683901 -1.55874 2.12132 -2.12132 
C 1.55874 -2.683901 0.795609 -3 0 -3 
C -0.795609 -3 -1.55874 -2.683901 -2.12132 -2.12132 
C -2.683901 -1.55874 -3 -0.795609 -3 0 
C -3 0.795609 -2.683901 1.55874 -2.12132 2.12132 
C -1.55874 2.683901 -0.795609 3 0 3 
z
" style="stroke: #000000"/>
    </defs>
    <g clip-path="url(#pf40d82b5ac)">
     <use xlink:href="#m6a593d67c4" x="290.876667" y="69.76" style="stroke: #000000"/>
     <use xlink:href="#m6a593d67c4" x="254.21" y="33.093333" style="stroke: #000000"/>
    </g>
   </g>
   <g id="line2d_2">
    <path d="M 254.21 33.093333 
L 217.543333 69.76 
" clip-path="url(#pf40d82b5ac)" style="fill: none; stroke: #ff0000; stroke-width: 5; stroke-linecap: square"/>
    <g clip-path="url(#pf40d82b5ac)">
     <use xlink:href="#m6a593d67c4" x="254.21" y="33.093333" style="stroke: #000000"/>
     <use xlink:href="#m6a593d67c4" x="217.543333" y="69.76" style="stroke: #000000"/>
    </g>
   </g>
   <g id="line2d_3">
    <path d="M 217.543333 69.76 
L 254.21 106.426667 
" clip-path="url(#pf40d82b5ac)" style="fill: none; stroke: #ff0000; stroke-width: 5; stroke-linecap: square"/>
    <g clip-path="url(#pf40d82b5ac)">
     <use xlink:href="#m6a593d67c4" x="217.543333" y="69.76" style="stroke: #000000"/>
     <use xlink:href="#m6a593d67c4" x="254.21" y="106.426667" style="stroke: #000000"/>
    </g>
   </g>
   <g id="text_1">
    <!-- 1 2 3 4 -->
    <g transform="translate(233.219375 8.76) scale(0.12 -0.12)">
     <defs>
      <path id="DejaVuSans-31" d="M 794 531 
L 1825 531 
L 1825 4091 
L 703 3866 
L 703 4441 
L 1819 4666 
L 2450 4666 
L 2450 531 
L 3481 531 
L 3481 0 
L 794 0 
L 794 531 
z
" transform="scale(0.015625)"/>
      <path id="DejaVuSans-20" transform="scale(0.015625)"/>
      <path id="DejaVuSans-32" d="M 1228 531 
L 3431 531 
L 3431 0 
L 469 0 
L 469 531 
Q 828 903 1448 1529 
Q 2069 2156 2228 2338 
Q 2531 2678 2651 2914 
Q 2772 3150 2772 3378 
Q 2772 3750 2511 3984 
Q 2250 4219 1831 4219 
Q 1534 4219 1204 4116 
Q 875 4013 500 3803 
L 500 4441 
Q 881 4594 1212 4672 
Q 1544 4750 1819 4750 
Q 2544 4750 2975 4387 
Q 3406 4025 3406 3419 
Q 3406 3131 3298 2873 
Q 3191 2616 2906 2266 
Q 2828 2175 2409 1742 
Q 1991 1309 1228 531 
z
" transform="scale(0.015625)"/>
      <path id="DejaVuSans-33" d="M 2597 2516 
Q 3050 2419 3304 2112 
Q 3559 1806 3559 1356 
Q 3559 666 3084 287 
Q 2609 -91 1734 -91 
Q 1441 -91 1130 -33 
Q 819 25 488 141 
L 488 750 
Q 750 597 1062 519 
Q 1375 441 1716 441 
Q 2309 441 2620 675 
Q 2931 909 2931 1356 
Q 2931 1769 2642 2001 
Q 2353 2234 1838 2234 
L 1294 2234 
L 1294 2753 
L 1863 2753 
Q 2328 2753 2575 2939 
Q 2822 3125 2822 3475 
Q 2822 3834 2567 4026 
Q 2313 4219 1838 4219 
Q 1578 4219 1281 4162 
Q 984 4106 628 3988 
L 628 4550 
Q 988 4650 1302 4700 
Q 1616 4750 1894 4750 
Q 2613 4750 3031 4423 
Q 3450 4097 3450 3541 
Q 3450 3153 3228 2886 
Q 3006 2619 2597 2516 
z
" transform="scale(0.015625)"/>
      <path id="DejaVuSans-34" d="M 2419 4116 
L 825 1625 
L 2419 1625 
L 2419 4116 
z
M 2253 4666 
L 3047 4666 
L 3047 1625 
L 3713 1625 
L 3713 1100 
L 3047 1100 
L 3047 0 
L 2419 0 
L 2419 1100 
L 313 1100 
L 313 1709 
L 2253 4666 
z
" transform="scale(0.015625)"/>
     </defs>
     <use xlink:href="#DejaVuSans-31"/>
     <use xlink:href="#DejaVuSans-20" x="63.623047"/>
     <use xlink:href="#DejaVuSans-32" x="95.410156"/>
     <use xlink:href="#DejaVuSans-20" x="159.033203"/>
     <use xlink:href="#DejaVuSans-33" x="190.820312"/>
     <use xlink:href="#DejaVuSans-20" x="254.443359"/>
     <use xlink:href="#DejaVuSans-34" x="286.230469"/>
    </g>
   </g>
  </g>
  <g id="axes_2">
   <g id="PathCollection_2">
    <g clip-path="url(#pb6727b35f5)">
     <use xlink:href="#m3ea2707c1e" x="767.276667" y="69.76" style="fill: #1f77b4; stroke: #1f77b4"/>
     <use xlink:href="#m3ea2707c1e" x="730.61" y="33.093333" style="fill: #1f77b4; stroke: #1f77b4"/>
     <use xlink:href="#m3ea2707c1e" x="693.943333" y="69.76" style="fill: #1f77b4; stroke: #1f77b4"/>
     <use xlink:href="#m3ea2707c1e" x="730.61" y="106.426667" style="fill: #1f77b4; stroke: #1f77b4"/>
    </g>
   </g>
   <g id="line2d_4">
    <path d="M 767.276667 69.76 
L 730.61 33.093333 
" clip-path="url(#pb6727b35f5)" style="fill: none; stroke: #0000ff; stroke-width: 5; stroke-linecap: square"/>
    <g clip-path="url(#pb6727b35f5)">
     <use xlink:href="#m6a593d67c4" x="767.276667" y="69.76" style="stroke: #000000"/>
     <use xlink:href="#m6a593d67c4" x="730.61" y="33.093333" style="stroke: #000000"/>
    </g>
   </g>
   <g id="line2d_5">
    <path d="M 730.61 33.093333 
L 693.943333 69.76 
" clip-path="url(#pb6727b35f5)" style="fill: none; stroke: #0000ff; stroke-width: 5; stroke-linecap: square"/>
    <g clip-path="url(#pb6727b35f5)">
     <use xlink:href="#m6a593d67c4" x="730.61" y="33.093333" style="stroke: #000000"/>
     <use xlink:href="#m6a593d67c4" x="693.943333" y="69.76" style="stroke: #000000"/>
    </g>
   </g>
   <g id="text_2">
    <!-- 4 | 1 2 3 -->
    <g transform="translate(705.69125 8.76) scale(0.12 -0.12)">
     <defs>
      <path id="DejaVuSans-7c" d="M 1344 4891 
L 1344 -1509 
L 813 -1509 
L 813 4891 
L 1344 4891 
z
" transform="scale(0.015625)"/>
     </defs>
     <use xlink:href="#DejaVuSans-34"/>
     <use xlink:href="#DejaVuSans-20" x="63.623047"/>
     <use xlink:href="#DejaVuSans-7c" x="95.410156"/>
     <use xlink:href="#DejaVuSans-20" x="129.101562"/>
     <use xlink:href="#DejaVuSans-31" x="160.888672"/>
     <use xlink:href="#DejaVuSans-20" x="224.511719"/>
     <use xlink:href="#DejaVuSans-32" x="256.298828"/>
     <use xlink:href="#DejaVuSans-20" x="319.921875"/>
     <use xlink:href="#DejaVuSans-33" x="351.708984"/>
    </g>
   </g>
  </g>
  <g id="axes_3">
   <g id="PathCollection_3">
    <g clip-path="url(#p45c5d00d3e)">
     <use xlink:href="#m3ea2707c1e" x="1243.676667" y="69.76" style="fill: #1f77b4; stroke: #1f77b4"/>
     <use xlink:href="#m3ea2707c1e" x="1207.01" y="33.093333" style="fill: #1f77b4; stroke: #1f77b4"/>
     <use xlink:href="#m3ea2707c1e" x="1170.343333" y="69.76" style="fill: #1f77b4; stroke: #1f77b4"/>
     <use xlink:href="#m3ea2707c1e" x="1207.01" y="106.426667" style="fill: #1f77b4; stroke: #1f77b4"/>
    </g>
   </g>
   <g id="line2d_6">
    <path d="M 1243.676667 69.76 
L 1207.01 33.093333 
" clip-path="url(#p45c5d00d3e)" style="fill: none; stroke: #008000; stroke-width: 5; stroke-linecap: square"/>
    <g clip-path="url(#p45c5d00d3e)">
     <use xlink:href="#m6a593d67c4" x="1243.676667" y="69.76" style="stroke: #000000"/>
     <use xlink:href="#m6a593d67c4" x="1207.01" y="33.093333" style="stroke: #000000"/>
    </g>
   </g>
   <g id="text_3">
    <!-- 4 | 3 | 1 2 -->
    <g transform="translate(1178.163125 8.76) scale(0.12 -0.12)">
     <use xlink:href="#DejaVuSans-34"/>
     <use xlink:href="#DejaVuSans-20" x="63.623047"/>
     <use xlink:href="#DejaVuSans-7c" x="95.410156"/>
     <use xlink:href="#DejaVuSans-20" x="129.101562"/>
     <use xlink:href="#DejaVuSans-33" x="160.888672"/>
     <use xlink:href="#DejaVuSans-20" x="224.511719"/>
     <use xlink:href="#DejaVuSans-7c" x="256.298828"/>
     <use xlink:href="#DejaVuSans-20" x="289.990234"/>
     <use xlink:href="#DejaVuSans-31" x="321.777344"/>
     <use xlink:href="#DejaVuSans-20" x="385.400391"/>
     <use xlink:href="#DejaVuSans-32" x="417.1875"/>
    </g>
   </g>
  </g>
  <g id="axes_4">
   <g id="PathCollection_4">
    <g clip-path="url(#pe02f7632ea)">
     <use xlink:href="#m3ea2707c1e" x="290.876667" y="211.6" style="fill: #1f77b4; stroke: #1f77b4"/>
     <use xlink:href="#m3ea2707c1e" x="254.21" y="174.933333" style="fill: #1f77b4; stroke: #1f77b4"/>
     <use xlink:href="#m3ea2707c1e" x="217.543333" y="211.6" style="fill: #1f77b4; stroke: #1f77b4"/>
     <use xlink:href="#m3ea2707c1e" x="254.21" y="248.266667" style="fill: #1f77b4; stroke: #1f77b4"/>
    </g>
   </g>
   <g id="line2d_7">
    <path d="M 217.543333 211.6 
L 254.21 248.266667 
" clip-path="url(#pe02f7632ea)" style="fill: none; stroke: #ff0000; stroke-width: 5; stroke-linecap: square"/>
    <g clip-path="url(#pe02f7632ea)">
     <use xlink:href="#m6a593d67c4" x="217.543333" y="211.6" style="stroke: #000000"/>
     <use xlink:href="#m6a593d67c4" x="254.21" y="248.266667" style="stroke: #000000"/>
    </g>
   </g>
   <g id="line2d_8">
    <path d="M 290.876667 211.6 
L 254.21 174.933333 
" clip-path="url(#pe02f7632ea)" style="fill: none; stroke: #0000ff; stroke-width: 5; stroke-linecap: square"/>
    <g clip-path="url(#pe02f7632ea)">
     <use xlink:href="#m6a593d67c4" x="290.876667" y="211.6" style="stroke: #000000"/>
     <use xlink:href="#m6a593d67c4" x="254.21" y="174.933333" style="stroke: #000000"/>
    </g>
   </g>
   <g id="text_4">
    <!-- 3 4 | 1 2 -->
    <g transform="translate(229.29125 150.6) scale(0.12 -0.12)">
     <use xlink:href="#DejaVuSans-33"/>
     <use xlink:href="#DejaVuSans-20" x="63.623047"/>
     <use xlink:href="#DejaVuSans-34" x="95.410156"/>
     <use xlink:href="#DejaVuSans-20" x="159.033203"/>
     <use xlink:href="#DejaVuSans-7c" x="190.820312"/>
     <use xlink:href="#DejaVuSans-20" x="224.511719"/>
     <use xlink:href="#DejaVuSans-31" x="256.298828"/>
     <use xlink:href="#DejaVuSans-20" x="319.921875"/>
     <use xlink:href="#DejaVuSans-32" x="351.708984"/>
    </g>
   </g>
  </g>
  <g id="axes_5">
   <g id="PathCollection_5">
    <g clip-path="url(#p9deac4ee7c)">
     <use xlink:href="#m3ea2707c1e" x="767.276667" y="211.6" style="fill: #1f77b4; stroke: #1f77b4"/>
     <use xlink:href="#m3ea2707c1e" x="730.61" y="174.933333" style="fill: #1f77b4; stroke: #1f77b4"/>
     <use xlink:href="#m3ea2707c1e" x="693.943333" y="211.6" style="fill: #1f77b4; stroke: #1f77b4"/>
     <use xlink:href="#m3ea2707c1e" x="730.61" y="248.266667" style="fill: #1f77b4; stroke: #1f77b4"/>
    </g>
   </g>
   <g id="line2d_9">
    <path d="M 767.276667 211.6 
L 730.61 174.933333 
" clip-path="url(#p9deac4ee7c)" style="fill: none; stroke: #0000ff; stroke-width: 5; stroke-linecap: square"/>
    <g clip-path="url(#p9deac4ee7c)">
     <use xlink:href="#m6a593d67c4" x="767.276667" y="211.6" style="stroke: #000000"/>
     <use xlink:href="#m6a593d67c4" x="730.61" y="174.933333" style="stroke: #000000"/>
    </g>
   </g>
   <g id="line2d_10">
    <path d="M 730.61 174.933333 
L 730.61 248.266667 
" clip-path="url(#p9deac4ee7c)" style="fill: none; stroke: #0000ff; stroke-width: 5; stroke-linecap: square"/>
    <g clip-path="url(#p9deac4ee7c)">
     <use xlink:href="#m6a593d67c4" x="730.61" y="174.933333" style="stroke: #000000"/>
     <use xlink:href="#m6a593d67c4" x="730.61" y="248.266667" style="stroke: #000000"/>
    </g>
   </g>
   <g id="text_5">
    <!-- 3 | 1 2 4 -->
    <g transform="translate(705.69125 150.6) scale(0.12 -0.12)">
     <use xlink:href="#DejaVuSans-33"/>
     <use xlink:href="#DejaVuSans-20" x="63.623047"/>
     <use xlink:href="#DejaVuSans-7c" x="95.410156"/>
     <use xlink:href="#DejaVuSans-20" x="129.101562"/>
     <use xlink:href="#DejaVuSans-31" x="160.888672"/>
     <use xlink:href="#DejaVuSans-20" x="224.511719"/>
     <use xlink:href="#DejaVuSans-32" x="256.298828"/>
     <use xlink:href="#DejaVuSans-20" x="319.921875"/>
     <use xlink:href="#DejaVuSans-34" x="351.708984"/>
    </g>
   </g>
  </g>
  <g id="axes_6">
   <g id="PathCollection_6">
    <g clip-path="url(#pb4433de1bf)">
     <use xlink:href="#m3ea2707c1e" x="1243.676667" y="211.6" style="fill: #1f77b4; stroke: #1f77b4"/>
     <use xlink:href="#m3ea2707c1e" x="1207.01" y="174.933333" style="fill: #1f77b4; stroke: #1f77b4"/>
     <use xlink:href="#m3ea2707c1e" x="1170.343333" y="211.6" style="fill: #1f77b4; stroke: #1f77b4"/>
     <use xlink:href="#m3ea2707c1e" x="1207.01" y="248.266667" style="fill: #1f77b4; stroke: #1f77b4"/>
    </g>
   </g>
   <g id="line2d_11">
    <path d="M 1243.676667 211.6 
L 1207.01 248.266667 
" clip-path="url(#pb4433de1bf)" style="fill: none; stroke: #008000; stroke-width: 5; stroke-linecap: square"/>
    <g clip-path="url(#pb4433de1bf)">
     <use xlink:href="#m6a593d67c4" x="1243.676667" y="211.6" style="stroke: #000000"/>
     <use xlink:href="#m6a593d67c4" x="1207.01" y="248.266667" style="stroke: #000000"/>
    </g>
   </g>
   <g id="text_6">
    <!-- 3 | 2 | 1 4 -->
    <g transform="translate(1178.163125 150.6) scale(0.12 -0.12)">
     <use xlink:href="#DejaVuSans-33"/>
     <use xlink:href="#DejaVuSans-20" x="63.623047"/>
     <use xlink:href="#DejaVuSans-7c" x="95.410156"/>
     <use xlink:href="#DejaVuSans-20" x="129.101562"/>
     <use xlink:href="#DejaVuSans-32" x="160.888672"/>
     <use xlink:href="#DejaVuSans-20" x="224.511719"/>
     <use xlink:href="#DejaVuSans-7c" x="256.298828"/>
     <use xlink:href="#DejaVuSans-20" x="289.990234"/>
     <use xlink:href="#DejaVuSans-31" x="321.777344"/>
     <use xlink:href="#DejaVuSans-20" x="385.400391"/>
     <use xlink:href="#DejaVuSans-34" x="417.1875"/>
    </g>
   </g>
  </g>
  <g id="axes_7">
   <g id="PathCollection_7">
    <g clip-path="url(#p6cae760b31)">
     <use xlink:href="#m3ea2707c1e" x="290.876667" y="353.44" style="fill: #1f77b4; stroke: #1f77b4"/>
     <use xlink:href="#m3ea2707c1e" x="254.21" y="316.773333" style="fill: #1f77b4; stroke: #1f77b4"/>
     <use xlink:href="#m3ea2707c1e" x="217.543333" y="353.44" style="fill: #1f77b4; stroke: #1f77b4"/>
     <use xlink:href="#m3ea2707c1e" x="254.21" y="390.106667" style="fill: #1f77b4; stroke: #1f77b4"/>
    </g>
   </g>
   <g id="line2d_12">
    <path d="M 254.21 316.773333 
L 254.21 390.106667 
" clip-path="url(#p6cae760b31)" style="fill: none; stroke: #0000ff; stroke-width: 5; stroke-linecap: square"/>
    <g clip-path="url(#p6cae760b31)">
     <use xlink:href="#m6a593d67c4" x="254.21" y="316.773333" style="stroke: #000000"/>
     <use xlink:href="#m6a593d67c4" x="254.21" y="390.106667" style="stroke: #000000"/>
    </g>
   </g>
   <g id="text_7">
    <!-- 3 | 2 4 | 1 -->
    <g transform="translate(225.363125 292.44) scale(0.12 -0.12)">
     <use xlink:href="#DejaVuSans-33"/>
     <use xlink:href="#DejaVuSans-20" x="63.623047"/>
     <use xlink:href="#DejaVuSans-7c" x="95.410156"/>
     <use xlink:href="#DejaVuSans-20" x="129.101562"/>
     <use xlink:href="#DejaVuSans-32" x="160.888672"/>
     <use xlink:href="#DejaVuSans-20" x="224.511719"/>
     <use xlink:href="#DejaVuSans-34" x="256.298828"/>
     <use xlink:href="#DejaVuSans-20" x="319.921875"/>
     <use xlink:href="#DejaVuSans-7c" x="351.708984"/>
     <use xlink:href="#DejaVuSans-20" x="385.400391"/>
     <use xlink:href="#DejaVuSans-31" x="417.1875"/>
    </g>
   </g>
  </g>
  <g id="axes_8">
   <g id="PathCollection_8">
    <g clip-path="url(#p75883aafa5)">
     <use xlink:href="#m3ea2707c1e" x="767.276667" y="353.44" style="fill: #1f77b4; stroke: #1f77b4"/>
     <use xlink:href="#m3ea2707c1e" x="730.61" y="316.773333" style="fill: #1f77b4; stroke: #1f77b4"/>
     <use xlink:href="#m3ea2707c1e" x="693.943333" y="353.44" style="fill: #1f77b4; stroke: #1f77b4"/>
     <use xlink:href="#m3ea2707c1e" x="730.61" y="390.106667" style="fill: #1f77b4; stroke: #1f77b4"/>
    </g>
   </g>
   <g id="line2d_13">
    <path d="M 693.943333 353.44 
L 730.61 390.106667 
" clip-path="url(#p75883aafa5)" style="fill: none; stroke: #ff0000; stroke-width: 5; stroke-linecap: square"/>
    <g clip-path="url(#p75883aafa5)">
     <use xlink:href="#m6a593d67c4" x="693.943333" y="353.44" style="stroke: #000000"/>
     <use xlink:href="#m6a593d67c4" x="730.61" y="390.106667" style="stroke: #000000"/>
    </g>
   </g>
   <g id="text_8">
    <!-- 3 4 | 2 | 1 -->
    <g transform="translate(701.763125 292.44) scale(0.12 -0.12)">
     <use xlink:href="#DejaVuSans-33"/>
     <use xlink:href="#DejaVuSans-20" x="63.623047"/>
     <use xlink:href="#DejaVuSans-34" x="95.410156"/>
     <use xlink:href="#DejaVuSans-20" x="159.033203"/>
     <use xlink:href="#DejaVuSans-7c" x="190.820312"/>
     <use xlink:href="#DejaVuSans-20" x="224.511719"/>
     <use xlink:href="#DejaVuSans-32" x="256.298828"/>
     <use xlink:href="#DejaVuSans-20" x="319.921875"/>
     <use xlink:href="#DejaVuSans-7c" x="351.708984"/>
     <use xlink:href="#DejaVuSans-20" x="385.400391"/>
     <use xlink:href="#DejaVuSans-31" x="417.1875"/>
    </g>
   </g>
  </g>
  <g id="axes_9">
   <g id="PathCollection_9">
    <g clip-path="url(#pb35c521b58)">
     <use xlink:href="#m3ea2707c1e" x="1243.676667" y="353.44" style="fill: #1f77b4; stroke: #1f77b4"/>
     <use xlink:href="#m3ea2707c1e" x="1207.01" y="316.773333" style="fill: #1f77b4; stroke: #1f77b4"/>
     <use xlink:href="#m3ea2707c1e" x="1170.343333" y="353.44" style="fill: #1f77b4; stroke: #1f77b4"/>
     <use xlink:href="#m3ea2707c1e" x="1207.01" y="390.106667" style="fill: #1f77b4; stroke: #1f77b4"/>
    </g>
   </g>
   <g id="text_9">
    <!-- 4 | 3 | 2 | 1 -->
    <g transform="translate(1174.235 292.44) scale(0.12 -0.12)">
     <use xlink:href="#DejaVuSans-34"/>
     <use xlink:href="#DejaVuSans-20" x="63.623047"/>
     <use xlink:href="#DejaVuSans-7c" x="95.410156"/>
     <use xlink:href="#DejaVuSans-20" x="129.101562"/>
     <use xlink:href="#DejaVuSans-33" x="160.888672"/>
     <use xlink:href="#DejaVuSans-20" x="224.511719"/>
     <use xlink:href="#DejaVuSans-7c" x="256.298828"/>
     <use xlink:href="#DejaVuSans-20" x="289.990234"/>
     <use xlink:href="#DejaVuSans-32" x="321.777344"/>
     <use xlink:href="#DejaVuSans-20" x="385.400391"/>
     <use xlink:href="#DejaVuSans-7c" x="417.1875"/>
     <use xlink:href="#DejaVuSans-20" x="450.878906"/>
     <use xlink:href="#DejaVuSans-31" x="482.666016"/>
    </g>
   </g>
  </g>
  <g id="axes_10">
   <g id="PathCollection_10">
    <g clip-path="url(#p60a64f4d3d)">
     <use xlink:href="#m3ea2707c1e" x="290.876667" y="495.28" style="fill: #1f77b4; stroke: #1f77b4"/>
     <use xlink:href="#m3ea2707c1e" x="254.21" y="458.613333" style="fill: #1f77b4; stroke: #1f77b4"/>
     <use xlink:href="#m3ea2707c1e" x="217.543333" y="495.28" style="fill: #1f77b4; stroke: #1f77b4"/>
     <use xlink:href="#m3ea2707c1e" x="254.21" y="531.946667" style="fill: #1f77b4; stroke: #1f77b4"/>
    </g>
   </g>
   <g id="line2d_14">
    <path d="M 254.21 458.613333 
L 217.543333 495.28 
" clip-path="url(#p60a64f4d3d)" style="fill: none; stroke: #0000ff; stroke-width: 5; stroke-linecap: square"/>
    <g clip-path="url(#p60a64f4d3d)">
     <use xlink:href="#m6a593d67c4" x="254.21" y="458.613333" style="stroke: #000000"/>
     <use xlink:href="#m6a593d67c4" x="217.543333" y="495.28" style="stroke: #000000"/>
    </g>
   </g>
   <g id="text_10">
    <!-- 4 | 2 3 | 1 -->
    <g transform="translate(225.363125 434.28) scale(0.12 -0.12)">
     <use xlink:href="#DejaVuSans-34"/>
     <use xlink:href="#DejaVuSans-20" x="63.623047"/>
     <use xlink:href="#DejaVuSans-7c" x="95.410156"/>
     <use xlink:href="#DejaVuSans-20" x="129.101562"/>
     <use xlink:href="#DejaVuSans-32" x="160.888672"/>
     <use xlink:href="#DejaVuSans-20" x="224.511719"/>
     <use xlink:href="#DejaVuSans-33" x="256.298828"/>
     <use xlink:href="#DejaVuSans-20" x="319.921875"/>
     <use xlink:href="#DejaVuSans-7c" x="351.708984"/>
     <use xlink:href="#DejaVuSans-20" x="385.400391"/>
     <use xlink:href="#DejaVuSans-31" x="417.1875"/>
    </g>
   </g>
  </g>
  <g id="axes_11">
   <g id="PathCollection_11">
    <g clip-path="url(#p7d406cdb60)">
     <use xlink:href="#m3ea2707c1e" x="767.276667" y="495.28" style="fill: #1f77b4; stroke: #1f77b4"/>
     <use xlink:href="#m3ea2707c1e" x="730.61" y="458.613333" style="fill: #1f77b4; stroke: #1f77b4"/>
     <use xlink:href="#m3ea2707c1e" x="693.943333" y="495.28" style="fill: #1f77b4; stroke: #1f77b4"/>
     <use xlink:href="#m3ea2707c1e" x="730.61" y="531.946667" style="fill: #1f77b4; stroke: #1f77b4"/>
    </g>
   </g>
   <g id="line2d_15">
    <path d="M 730.61 458.613333 
L 693.943333 495.28 
" clip-path="url(#p7d406cdb60)" style="fill: none; stroke: #ff0000; stroke-width: 5; stroke-linecap: square"/>
    <g clip-path="url(#p7d406cdb60)">
     <use xlink:href="#m6a593d67c4" x="730.61" y="458.613333" style="stroke: #000000"/>
     <use xlink:href="#m6a593d67c4" x="693.943333" y="495.28" style="stroke: #000000"/>
    </g>
   </g>
   <g id="line2d_16">
    <path d="M 693.943333 495.28 
L 730.61 531.946667 
" clip-path="url(#p7d406cdb60)" style="fill: none; stroke: #ff0000; stroke-width: 5; stroke-linecap: square"/>
    <g clip-path="url(#p7d406cdb60)">
     <use xlink:href="#m6a593d67c4" x="693.943333" y="495.28" style="stroke: #000000"/>
     <use xlink:href="#m6a593d67c4" x="730.61" y="531.946667" style="stroke: #000000"/>
    </g>
   </g>
   <g id="text_11">
    <!-- 2 3 4 | 1 -->
    <g transform="translate(705.69125 434.28) scale(0.12 -0.12)">
     <use xlink:href="#DejaVuSans-32"/>
     <use xlink:href="#DejaVuSans-20" x="63.623047"/>
     <use xlink:href="#DejaVuSans-33" x="95.410156"/>
     <use xlink:href="#DejaVuSans-20" x="159.033203"/>
     <use xlink:href="#DejaVuSans-34" x="190.820312"/>
     <use xlink:href="#DejaVuSans-20" x="254.443359"/>
     <use xlink:href="#DejaVuSans-7c" x="286.230469"/>
     <use xlink:href="#DejaVuSans-20" x="319.921875"/>
     <use xlink:href="#DejaVuSans-31" x="351.708984"/>
    </g>
   </g>
  </g>
  <g id="axes_12">
   <g id="PathCollection_12">
    <g clip-path="url(#p4397351d32)">
     <use xlink:href="#m3ea2707c1e" x="1243.676667" y="495.28" style="fill: #1f77b4; stroke: #1f77b4"/>
     <use xlink:href="#m3ea2707c1e" x="1207.01" y="458.613333" style="fill: #1f77b4; stroke: #1f77b4"/>
     <use xlink:href="#m3ea2707c1e" x="1170.343333" y="495.28" style="fill: #1f77b4; stroke: #1f77b4"/>
     <use xlink:href="#m3ea2707c1e" x="1207.01" y="531.946667" style="fill: #1f77b4; stroke: #1f77b4"/>
    </g>
   </g>
   <g id="line2d_17">
    <path d="M 1207.01 458.613333 
L 1170.343333 495.28 
" clip-path="url(#p4397351d32)" style="fill: none; stroke: #ff0000; stroke-width: 5; stroke-linecap: square"/>
    <g clip-path="url(#p4397351d32)">
     <use xlink:href="#m6a593d67c4" x="1207.01" y="458.613333" style="stroke: #000000"/>
     <use xlink:href="#m6a593d67c4" x="1170.343333" y="495.28" style="stroke: #000000"/>
    </g>
   </g>
   <g id="line2d_18">
    <path d="M 1243.676667 495.28 
L 1207.01 531.946667 
" clip-path="url(#p4397351d32)" style="fill: none; stroke: #0000ff; stroke-width: 5; stroke-linecap: square"/>
    <g clip-path="url(#p4397351d32)">
     <use xlink:href="#m6a593d67c4" x="1243.676667" y="495.28" style="stroke: #000000"/>
     <use xlink:href="#m6a593d67c4" x="1207.01" y="531.946667" style="stroke: #000000"/>
    </g>
   </g>
   <g id="text_12">
    <!-- 2 3 | 1 4 -->
    <g transform="translate(1182.09125 434.28) scale(0.12 -0.12)">
     <use xlink:href="#DejaVuSans-32"/>
     <use xlink:href="#DejaVuSans-20" x="63.623047"/>
     <use xlink:href="#DejaVuSans-33" x="95.410156"/>
     <use xlink:href="#DejaVuSans-20" x="159.033203"/>
     <use xlink:href="#DejaVuSans-7c" x="190.820312"/>
     <use xlink:href="#DejaVuSans-20" x="224.511719"/>
     <use xlink:href="#DejaVuSans-31" x="256.298828"/>
     <use xlink:href="#DejaVuSans-20" x="319.921875"/>
     <use xlink:href="#DejaVuSans-34" x="351.708984"/>
    </g>
   </g>
  </g>
  <g id="axes_13">
   <g id="PathCollection_13">
    <g clip-path="url(#pacbfbb9c62)">
     <use xlink:href="#m3ea2707c1e" x="290.876667" y="637.12" style="fill: #1f77b4; stroke: #1f77b4"/>
     <use xlink:href="#m3ea2707c1e" x="254.21" y="600.453333" style="fill: #1f77b4; stroke: #1f77b4"/>
     <use xlink:href="#m3ea2707c1e" x="217.543333" y="637.12" style="fill: #1f77b4; stroke: #1f77b4"/>
     <use xlink:href="#m3ea2707c1e" x="254.21" y="673.786667" style="fill: #1f77b4; stroke: #1f77b4"/>
    </g>
   </g>
   <g id="line2d_19">
    <path d="M 290.876667 637.12 
L 217.543333 637.12 
" clip-path="url(#pacbfbb9c62)" style="fill: none; stroke: #0000ff; stroke-width: 5; stroke-linecap: square"/>
    <g clip-path="url(#pacbfbb9c62)">
     <use xlink:href="#m6a593d67c4" x="290.876667" y="637.12" style="stroke: #000000"/>
     <use xlink:href="#m6a593d67c4" x="217.543333" y="637.12" style="stroke: #000000"/>
    </g>
   </g>
   <g id="line2d_20">
    <path d="M 217.543333 637.12 
L 254.21 673.786667 
" clip-path="url(#pacbfbb9c62)" style="fill: none; stroke: #0000ff; stroke-width: 5; stroke-linecap: square"/>
    <g clip-path="url(#pacbfbb9c62)">
     <use xlink:href="#m6a593d67c4" x="217.543333" y="637.12" style="stroke: #000000"/>
     <use xlink:href="#m6a593d67c4" x="254.21" y="673.786667" style="stroke: #000000"/>
    </g>
   </g>
   <g id="text_13">
    <!-- 2 | 1 3 4 -->
    <g transform="translate(229.29125 576.12) scale(0.12 -0.12)">
     <use xlink:href="#DejaVuSans-32"/>
     <use xlink:href="#DejaVuSans-20" x="63.623047"/>
     <use xlink:href="#DejaVuSans-7c" x="95.410156"/>
     <use xlink:href="#DejaVuSans-20" x="129.101562"/>
     <use xlink:href="#DejaVuSans-31" x="160.888672"/>
     <use xlink:href="#DejaVuSans-20" x="224.511719"/>
     <use xlink:href="#DejaVuSans-33" x="256.298828"/>
     <use xlink:href="#DejaVuSans-20" x="319.921875"/>
     <use xlink:href="#DejaVuSans-34" x="351.708984"/>
    </g>
   </g>
  </g>
  <g id="axes_14">
   <g id="PathCollection_14">
    <g clip-path="url(#p442db2c7eb)">
     <use xlink:href="#m3ea2707c1e" x="767.276667" y="637.12" style="fill: #1f77b4; stroke: #1f77b4"/>
     <use xlink:href="#m3ea2707c1e" x="730.61" y="600.453333" style="fill: #1f77b4; stroke: #1f77b4"/>
     <use xlink:href="#m3ea2707c1e" x="693.943333" y="637.12" style="fill: #1f77b4; stroke: #1f77b4"/>
     <use xlink:href="#m3ea2707c1e" x="730.61" y="673.786667" style="fill: #1f77b4; stroke: #1f77b4"/>
    </g>
   </g>
   <g id="line2d_21">
    <path d="M 730.61 600.453333 
L 730.61 673.786667 
" clip-path="url(#p442db2c7eb)" style="fill: none; stroke: #ff0000; stroke-width: 5; stroke-linecap: square"/>
    <g clip-path="url(#p442db2c7eb)">
     <use xlink:href="#m6a593d67c4" x="730.61" y="600.453333" style="stroke: #000000"/>
     <use xlink:href="#m6a593d67c4" x="730.61" y="673.786667" style="stroke: #000000"/>
    </g>
   </g>
   <g id="line2d_22">
    <path d="M 767.276667 637.12 
L 693.943333 637.12 
" clip-path="url(#p442db2c7eb)" style="fill: none; stroke: #0000ff; stroke-width: 5; stroke-linecap: square"/>
    <g clip-path="url(#p442db2c7eb)">
     <use xlink:href="#m6a593d67c4" x="767.276667" y="637.12" style="stroke: #000000"/>
     <use xlink:href="#m6a593d67c4" x="693.943333" y="637.12" style="stroke: #000000"/>
    </g>
   </g>
   <g id="text_14">
    <!-- 2 4 | 1 3 -->
    <g transform="translate(705.69125 576.12) scale(0.12 -0.12)">
     <use xlink:href="#DejaVuSans-32"/>
     <use xlink:href="#DejaVuSans-20" x="63.623047"/>
     <use xlink:href="#DejaVuSans-34" x="95.410156"/>
     <use xlink:href="#DejaVuSans-20" x="159.033203"/>
     <use xlink:href="#DejaVuSans-7c" x="190.820312"/>
     <use xlink:href="#DejaVuSans-20" x="224.511719"/>
     <use xlink:href="#DejaVuSans-31" x="256.298828"/>
     <use xlink:href="#DejaVuSans-20" x="319.921875"/>
     <use xlink:href="#DejaVuSans-33" x="351.708984"/>
    </g>
   </g>
  </g>
  <g id="axes_15">
   <g id="PathCollection_15">
    <g clip-path="url(#p97d25f1408)">
     <use xlink:href="#m3ea2707c1e" x="1243.676667" y="637.12" style="fill: #1f77b4; stroke: #1f77b4"/>
     <use xlink:href="#m3ea2707c1e" x="1207.01" y="600.453333" style="fill: #1f77b4; stroke: #1f77b4"/>
     <use xlink:href="#m3ea2707c1e" x="1170.343333" y="637.12" style="fill: #1f77b4; stroke: #1f77b4"/>
     <use xlink:href="#m3ea2707c1e" x="1207.01" y="673.786667" style="fill: #1f77b4; stroke: #1f77b4"/>
    </g>
   </g>
   <g id="line2d_23">
    <path d="M 1243.676667 637.12 
L 1170.343333 637.12 
" clip-path="url(#p97d25f1408)" style="fill: none; stroke: #008000; stroke-width: 5; stroke-linecap: square"/>
    <g clip-path="url(#p97d25f1408)">
     <use xlink:href="#m6a593d67c4" x="1243.676667" y="637.12" style="stroke: #000000"/>
     <use xlink:href="#m6a593d67c4" x="1170.343333" y="637.12" style="stroke: #000000"/>
    </g>
   </g>
   <g id="text_15">
    <!-- 4 | 2 | 1 3 -->
    <g transform="translate(1178.163125 576.12) scale(0.12 -0.12)">
     <use xlink:href="#DejaVuSans-34"/>
     <use xlink:href="#DejaVuSans-20" x="63.623047"/>
     <use xlink:href="#DejaVuSans-7c" x="95.410156"/>
     <use xlink:href="#DejaVuSans-20" x="129.101562"/>
     <use xlink:href="#DejaVuSans-32" x="160.888672"/>
     <use xlink:href="#DejaVuSans-20" x="224.511719"/>
     <use xlink:href="#DejaVuSans-7c" x="256.298828"/>
     <use xlink:href="#DejaVuSans-20" x="289.990234"/>
     <use xlink:href="#DejaVuSans-31" x="321.777344"/>
     <use xlink:href="#DejaVuSans-20" x="385.400391"/>
     <use xlink:href="#DejaVuSans-33" x="417.1875"/>
    </g>
   </g>
  </g>
 </g>
 <defs>
  <clipPath id="pf40d82b5ac">
   <rect x="199.21" y="14.76" width="110" height="110"/>
  </clipPath>
  <clipPath id="pb6727b35f5">
   <rect x="675.61" y="14.76" width="110" height="110"/>
  </clipPath>
  <clipPath id="p45c5d00d3e">
   <rect x="1152.01" y="14.76" width="110" height="110"/>
  </clipPath>
  <clipPath id="pe02f7632ea">
   <rect x="199.21" y="156.6" width="110" height="110"/>
  </clipPath>
  <clipPath id="p9deac4ee7c">
   <rect x="675.61" y="156.6" width="110" height="110"/>
  </clipPath>
  <clipPath id="pb4433de1bf">
   <rect x="1152.01" y="156.6" width="110" height="110"/>
  </clipPath>
  <clipPath id="p6cae760b31">
   <rect x="199.21" y="298.44" width="110" height="110"/>
  </clipPath>
  <clipPath id="p75883aafa5">
   <rect x="675.61" y="298.44" width="110" height="110"/>
  </clipPath>
  <clipPath id="pb35c521b58">
   <rect x="1152.01" y="298.44" width="110" height="110"/>
  </clipPath>
  <clipPath id="p60a64f4d3d">
   <rect x="199.21" y="440.28" width="110" height="110"/>
  </clipPath>
  <clipPath id="p7d406cdb60">
   <rect x="675.61" y="440.28" width="110" height="110"/>
  </clipPath>
  <clipPath id="p4397351d32">
   <rect x="1152.01" y="440.28" width="110" height="110"/>
  </clipPath>
  <clipPath id="pacbfbb9c62">
   <rect x="199.21" y="582.12" width="110" height="110"/>
  </clipPath>
  <clipPath id="p442db2c7eb">
   <rect x="675.61" y="582.12" width="110" height="110"/>
  </clipPath>
  <clipPath id="p97d25f1408">
   <rect x="1152.01" y="582.12" width="110" height="110"/>
  </clipPath>
 </defs>
</svg>
