<?xml version="1.0" encoding="utf-8" standalone="no"?>
<!DOCTYPE svg PUBLIC "-//W3C//DTD SVG 1.1//EN"
  "http://www.w3.org/Graphics/SVG/1.1/DTD/svg11.dtd">
<svg xmlns:xlink="http://www.w3.org/1999/xlink" width="720pt" height="720pt" viewBox="0 0 720 720" xmlns="http://www.w3.org/2000/svg" version="1.1">
 <metadata>
  <rdf:RDF xmlns:dc="http://purl.org/dc/elements/1.1/" xmlns:cc="http://creativecommons.org/ns#" xmlns:rdf="http://www.w3.org/1999/02/22-rdf-syntax-ns#">
   <cc:Work>
    <dc:type rdf:resource="http://purl.org/dc/dcmitype/StillImage"/>
    <dc:date>2024-05-12T12:32:53.130531</dc:date>
    <dc:format>image/svg+xml</dc:format>
    <dc:creator>
     <cc:Agent>
      <dc:title>Matplotlib v3.8.0, https://matplotlib.org/</dc:title>
     </cc:Agent>
    </dc:creator>
   </cc:Work>
  </rdf:RDF>
 </metadata>
 <defs>
  <style type="text/css">*{stroke-linejoin: round; stroke-linecap: butt}</style>
 </defs>
 <g id="figure_1">
  <g id="patch_1">
   <path d="M 0 720 
L 720 720 
L 720 0 
L 0 0 
z
" style="fill: #ffffff"/>
  </g>
  <g id="axes_1">
   <g id="line2d_1">
    <path d="M 55.738333 131.686667 
L 77.836667 109.588333 
L 99.935 87.49 
L 122.033333 65.391667 
L 144.131667 43.293333 
" clip-path="url(#p0cfb8ba8bd)" style="fill: none; stroke: #1f77b4; stroke-width: 1.5; stroke-linecap: square"/>
    <defs>
     <path id="m6b847cbcac" d="M 0 3 
C 0.795609 3 1.55874 2.683901 2.12132 2.12132 
C 2.683901 1.55874 3 0.795609 3 0 
C 3 -0.795609 2.683901 -1.55874 2.12132 -2.12132 
C 1.55874 -2.683901 0.795609 -3 0 -3 
C -0.795609 -3 -1.55874 -2.683901 -2.12132 -2.12132 
C -2.683901 -1.55874 -3 -0.795609 -3 0 
C -3 0.795609 -2.683901 1.55874 -2.12132 2.12132 
C -1.55874 2.683901 -0.795609 3 0 3 
z
" style="stroke: #000000"/>
    </defs>
    <g clip-path="url(#p0cfb8ba8bd)">
     <use xlink:href="#m6b847cbcac" x="55.738333" y="131.686667" style="stroke: #000000"/>
     <use xlink:href="#m6b847cbcac" x="77.836667" y="109.588333" style="stroke: #000000"/>
     <use xlink:href="#m6b847cbcac" x="99.935" y="87.49" style="stroke: #000000"/>
     <use xlink:href="#m6b847cbcac" x="122.033333" y="65.391667" style="stroke: #000000"/>
     <use xlink:href="#m6b847cbcac" x="144.131667" y="43.293333" style="stroke: #000000"/>
    </g>
   </g>
   <g id="text_1">
    <!-- 12345 -->
    <g transform="translate(80.8475 15.195) scale(0.12 -0.12)">
     <defs>
      <path id="DejaVuSans-31" d="M 794 531 
L 1825 531 
L 1825 4091 
L 703 3866 
L 703 4441 
L 1819 4666 
L 2450 4666 
L 2450 531 
L 3481 531 
L 3481 0 
L 794 0 
L 794 531 
z
" transform="scale(0.015625)"/>
      <path id="DejaVuSans-32" d="M 1228 531 
L 3431 531 
L 3431 0 
L 469 0 
L 469 531 
Q 828 903 1448 1529 
Q 2069 2156 2228 2338 
Q 2531 2678 2651 2914 
Q 2772 3150 2772 3378 
Q 2772 3750 2511 3984 
Q 2250 4219 1831 4219 
Q 1534 4219 1204 4116 
Q 875 4013 500 3803 
L 500 4441 
Q 881 4594 1212 4672 
Q 1544 4750 1819 4750 
Q 2544 4750 2975 4387 
Q 3406 4025 3406 3419 
Q 3406 3131 3298 2873 
Q 3191 2616 2906 2266 
Q 2828 2175 2409 1742 
Q 1991 1309 1228 531 
z
" transform="scale(0.015625)"/>
      <path id="DejaVuSans-33" d="M 2597 2516 
Q 3050 2419 3304 2112 
Q 3559 1806 3559 1356 
Q 3559 666 3084 287 
Q 2609 -91 1734 -91 
Q 1441 -91 1130 -33 
Q 819 25 488 141 
L 488 750 
Q 750 597 1062 519 
Q 1375 441 1716 441 
Q 2309 441 2620 675 
Q 2931 909 2931 1356 
Q 2931 1769 2642 2001 
Q 2353 2234 1838 2234 
L 1294 2234 
L 1294 2753 
L 1863 2753 
Q 2328 2753 2575 2939 
Q 2822 3125 2822 3475 
Q 2822 3834 2567 4026 
Q 2313 4219 1838 4219 
Q 1578 4219 1281 4162 
Q 984 4106 628 3988 
L 628 4550 
Q 988 4650 1302 4700 
Q 1616 4750 1894 4750 
Q 2613 4750 3031 4423 
Q 3450 4097 3450 3541 
Q 3450 3153 3228 2886 
Q 3006 2619 2597 2516 
z
" transform="scale(0.015625)"/>
      <path id="DejaVuSans-34" d="M 2419 4116 
L 825 1625 
L 2419 1625 
L 2419 4116 
z
M 2253 4666 
L 3047 4666 
L 3047 1625 
L 3713 1625 
L 3713 1100 
L 3047 1100 
L 3047 0 
L 2419 0 
L 2419 1100 
L 313 1100 
L 313 1709 
L 2253 4666 
z
" transform="scale(0.015625)"/>
      <path id="DejaVuSans-35" d="M 691 4666 
L 3169 4666 
L 3169 4134 
L 1269 4134 
L 1269 2991 
Q 1406 3038 1543 3061 
Q 1681 3084 1819 3084 
Q 2600 3084 3056 2656 
Q 3513 2228 3513 1497 
Q 3513 744 3044 326 
Q 2575 -91 1722 -91 
Q 1428 -91 1123 -41 
Q 819 9 494 109 
L 494 744 
Q 775 591 1075 516 
Q 1375 441 1709 441 
Q 2250 441 2565 725 
Q 2881 1009 2881 1497 
Q 2881 1984 2565 2268 
Q 2250 2553 1709 2553 
Q 1456 2553 1204 2497 
Q 953 2441 691 2322 
L 691 4666 
z
" transform="scale(0.015625)"/>
     </defs>
     <use xlink:href="#DejaVuSans-31"/>
     <use xlink:href="#DejaVuSans-32" x="63.623047"/>
     <use xlink:href="#DejaVuSans-33" x="127.246094"/>
     <use xlink:href="#DejaVuSans-34" x="190.869141"/>
     <use xlink:href="#DejaVuSans-35" x="254.492188"/>
    </g>
   </g>
  </g>
  <g id="axes_2">
   <g id="line2d_2">
    <path d="M 233.038333 43.293333 
L 255.136667 131.686667 
L 277.235 109.588333 
L 299.333333 87.49 
L 321.431667 65.391667 
" clip-path="url(#p4ab1cc47a7)" style="fill: none; stroke: #1f77b4; stroke-width: 1.5; stroke-linecap: square"/>
    <g clip-path="url(#p4ab1cc47a7)">
     <use xlink:href="#m6b847cbcac" x="233.038333" y="43.293333" style="stroke: #000000"/>
     <use xlink:href="#m6b847cbcac" x="255.136667" y="131.686667" style="stroke: #000000"/>
     <use xlink:href="#m6b847cbcac" x="277.235" y="109.588333" style="stroke: #000000"/>
     <use xlink:href="#m6b847cbcac" x="299.333333" y="87.49" style="stroke: #000000"/>
     <use xlink:href="#m6b847cbcac" x="321.431667" y="65.391667" style="stroke: #000000"/>
    </g>
   </g>
   <g id="text_2">
    <!-- 51234 -->
    <g transform="translate(258.1475 15.195) scale(0.12 -0.12)">
     <use xlink:href="#DejaVuSans-35"/>
     <use xlink:href="#DejaVuSans-31" x="63.623047"/>
     <use xlink:href="#DejaVuSans-32" x="127.246094"/>
     <use xlink:href="#DejaVuSans-33" x="190.869141"/>
     <use xlink:href="#DejaVuSans-34" x="254.492188"/>
    </g>
   </g>
  </g>
  <g id="axes_3">
   <g id="line2d_3">
    <path d="M 410.338333 43.293333 
L 432.436667 65.391667 
L 454.535 131.686667 
L 476.633333 109.588333 
L 498.731667 87.49 
" clip-path="url(#p11f8d767ad)" style="fill: none; stroke: #1f77b4; stroke-width: 1.5; stroke-linecap: square"/>
    <g clip-path="url(#p11f8d767ad)">
     <use xlink:href="#m6b847cbcac" x="410.338333" y="43.293333" style="stroke: #000000"/>
     <use xlink:href="#m6b847cbcac" x="432.436667" y="65.391667" style="stroke: #000000"/>
     <use xlink:href="#m6b847cbcac" x="454.535" y="131.686667" style="stroke: #000000"/>
     <use xlink:href="#m6b847cbcac" x="476.633333" y="109.588333" style="stroke: #000000"/>
     <use xlink:href="#m6b847cbcac" x="498.731667" y="87.49" style="stroke: #000000"/>
    </g>
   </g>
   <g id="text_3">
    <!-- 54123 -->
    <g transform="translate(435.4475 15.195) scale(0.12 -0.12)">
     <use xlink:href="#DejaVuSans-35"/>
     <use xlink:href="#DejaVuSans-34" x="63.623047"/>
     <use xlink:href="#DejaVuSans-31" x="127.246094"/>
     <use xlink:href="#DejaVuSans-32" x="190.869141"/>
     <use xlink:href="#DejaVuSans-33" x="254.492188"/>
    </g>
   </g>
  </g>
  <g id="axes_4">
   <g id="line2d_4">
    <path d="M 587.638333 65.391667 
L 609.736667 131.686667 
L 631.835 109.588333 
L 653.933333 87.49 
L 676.031667 43.293333 
" clip-path="url(#p4da47673d5)" style="fill: none; stroke: #1f77b4; stroke-width: 1.5; stroke-linecap: square"/>
    <g clip-path="url(#p4da47673d5)">
     <use xlink:href="#m6b847cbcac" x="587.638333" y="65.391667" style="stroke: #000000"/>
     <use xlink:href="#m6b847cbcac" x="609.736667" y="131.686667" style="stroke: #000000"/>
     <use xlink:href="#m6b847cbcac" x="631.835" y="109.588333" style="stroke: #000000"/>
     <use xlink:href="#m6b847cbcac" x="653.933333" y="87.49" style="stroke: #000000"/>
     <use xlink:href="#m6b847cbcac" x="676.031667" y="43.293333" style="stroke: #000000"/>
    </g>
   </g>
   <g id="text_4">
    <!-- 41235 -->
    <g transform="translate(612.7475 15.195) scale(0.12 -0.12)">
     <use xlink:href="#DejaVuSans-34"/>
     <use xlink:href="#DejaVuSans-31" x="63.623047"/>
     <use xlink:href="#DejaVuSans-32" x="127.246094"/>
     <use xlink:href="#DejaVuSans-33" x="190.869141"/>
     <use xlink:href="#DejaVuSans-35" x="254.492188"/>
    </g>
   </g>
  </g>
  <g id="axes_5">
   <g id="line2d_5">
    <path d="M 55.738333 242.691667 
L 77.836667 264.79 
L 99.935 308.986667 
L 122.033333 286.888333 
L 144.131667 220.593333 
" clip-path="url(#pb8fec9ac28)" style="fill: none; stroke: #1f77b4; stroke-width: 1.5; stroke-linecap: square"/>
    <g clip-path="url(#pb8fec9ac28)">
     <use xlink:href="#m6b847cbcac" x="55.738333" y="242.691667" style="stroke: #000000"/>
     <use xlink:href="#m6b847cbcac" x="77.836667" y="264.79" style="stroke: #000000"/>
     <use xlink:href="#m6b847cbcac" x="99.935" y="308.986667" style="stroke: #000000"/>
     <use xlink:href="#m6b847cbcac" x="122.033333" y="286.888333" style="stroke: #000000"/>
     <use xlink:href="#m6b847cbcac" x="144.131667" y="220.593333" style="stroke: #000000"/>
    </g>
   </g>
   <g id="text_5">
    <!-- 43125 -->
    <g transform="translate(80.8475 192.495) scale(0.12 -0.12)">
     <use xlink:href="#DejaVuSans-34"/>
     <use xlink:href="#DejaVuSans-33" x="63.623047"/>
     <use xlink:href="#DejaVuSans-31" x="127.246094"/>
     <use xlink:href="#DejaVuSans-32" x="190.869141"/>
     <use xlink:href="#DejaVuSans-35" x="254.492188"/>
    </g>
   </g>
  </g>
  <g id="axes_6">
   <g id="line2d_6">
    <path d="M 233.038333 220.593333 
L 255.136667 242.691667 
L 277.235 264.79 
L 299.333333 308.986667 
L 321.431667 286.888333 
" clip-path="url(#p5158628802)" style="fill: none; stroke: #1f77b4; stroke-width: 1.5; stroke-linecap: square"/>
    <g clip-path="url(#p5158628802)">
     <use xlink:href="#m6b847cbcac" x="233.038333" y="220.593333" style="stroke: #000000"/>
     <use xlink:href="#m6b847cbcac" x="255.136667" y="242.691667" style="stroke: #000000"/>
     <use xlink:href="#m6b847cbcac" x="277.235" y="264.79" style="stroke: #000000"/>
     <use xlink:href="#m6b847cbcac" x="299.333333" y="308.986667" style="stroke: #000000"/>
     <use xlink:href="#m6b847cbcac" x="321.431667" y="286.888333" style="stroke: #000000"/>
    </g>
   </g>
   <g id="text_6">
    <!-- 54312 -->
    <g transform="translate(258.1475 192.495) scale(0.12 -0.12)">
     <use xlink:href="#DejaVuSans-35"/>
     <use xlink:href="#DejaVuSans-34" x="63.623047"/>
     <use xlink:href="#DejaVuSans-33" x="127.246094"/>
     <use xlink:href="#DejaVuSans-31" x="190.869141"/>
     <use xlink:href="#DejaVuSans-32" x="254.492188"/>
    </g>
   </g>
  </g>
  <g id="axes_7">
   <g id="line2d_7">
    <path d="M 410.338333 220.593333 
L 432.436667 264.79 
L 454.535 308.986667 
L 476.633333 286.888333 
L 498.731667 242.691667 
" clip-path="url(#pa90ec0e2bb)" style="fill: none; stroke: #1f77b4; stroke-width: 1.5; stroke-linecap: square"/>
    <g clip-path="url(#pa90ec0e2bb)">
     <use xlink:href="#m6b847cbcac" x="410.338333" y="220.593333" style="stroke: #000000"/>
     <use xlink:href="#m6b847cbcac" x="432.436667" y="264.79" style="stroke: #000000"/>
     <use xlink:href="#m6b847cbcac" x="454.535" y="308.986667" style="stroke: #000000"/>
     <use xlink:href="#m6b847cbcac" x="476.633333" y="286.888333" style="stroke: #000000"/>
     <use xlink:href="#m6b847cbcac" x="498.731667" y="242.691667" style="stroke: #000000"/>
    </g>
   </g>
   <g id="text_7">
    <!-- 53124 -->
    <g transform="translate(435.4475 192.495) scale(0.12 -0.12)">
     <use xlink:href="#DejaVuSans-35"/>
     <use xlink:href="#DejaVuSans-33" x="63.623047"/>
     <use xlink:href="#DejaVuSans-31" x="127.246094"/>
     <use xlink:href="#DejaVuSans-32" x="190.869141"/>
     <use xlink:href="#DejaVuSans-34" x="254.492188"/>
    </g>
   </g>
  </g>
  <g id="axes_8">
   <g id="line2d_8">
    <path d="M 587.638333 264.79 
L 609.736667 308.986667 
L 631.835 286.888333 
L 653.933333 242.691667 
L 676.031667 220.593333 
" clip-path="url(#p014c9cefcc)" style="fill: none; stroke: #1f77b4; stroke-width: 1.5; stroke-linecap: square"/>
    <g clip-path="url(#p014c9cefcc)">
     <use xlink:href="#m6b847cbcac" x="587.638333" y="264.79" style="stroke: #000000"/>
     <use xlink:href="#m6b847cbcac" x="609.736667" y="308.986667" style="stroke: #000000"/>
     <use xlink:href="#m6b847cbcac" x="631.835" y="286.888333" style="stroke: #000000"/>
     <use xlink:href="#m6b847cbcac" x="653.933333" y="242.691667" style="stroke: #000000"/>
     <use xlink:href="#m6b847cbcac" x="676.031667" y="220.593333" style="stroke: #000000"/>
    </g>
   </g>
   <g id="text_8">
    <!-- 31245 -->
    <g transform="translate(612.7475 192.495) scale(0.12 -0.12)">
     <use xlink:href="#DejaVuSans-33"/>
     <use xlink:href="#DejaVuSans-31" x="63.623047"/>
     <use xlink:href="#DejaVuSans-32" x="127.246094"/>
     <use xlink:href="#DejaVuSans-34" x="190.869141"/>
     <use xlink:href="#DejaVuSans-35" x="254.492188"/>
    </g>
   </g>
  </g>
  <g id="axes_9">
   <g id="line2d_9">
    <path d="M 55.738333 442.09 
L 77.836667 464.188333 
L 99.935 486.286667 
L 122.033333 419.991667 
L 144.131667 397.893333 
" clip-path="url(#p41994b2166)" style="fill: none; stroke: #1f77b4; stroke-width: 1.5; stroke-linecap: square"/>
    <g clip-path="url(#p41994b2166)">
     <use xlink:href="#m6b847cbcac" x="55.738333" y="442.09" style="stroke: #000000"/>
     <use xlink:href="#m6b847cbcac" x="77.836667" y="464.188333" style="stroke: #000000"/>
     <use xlink:href="#m6b847cbcac" x="99.935" y="486.286667" style="stroke: #000000"/>
     <use xlink:href="#m6b847cbcac" x="122.033333" y="419.991667" style="stroke: #000000"/>
     <use xlink:href="#m6b847cbcac" x="144.131667" y="397.893333" style="stroke: #000000"/>
    </g>
   </g>
   <g id="text_9">
    <!-- 32145 -->
    <g transform="translate(80.8475 369.795) scale(0.12 -0.12)">
     <use xlink:href="#DejaVuSans-33"/>
     <use xlink:href="#DejaVuSans-32" x="63.623047"/>
     <use xlink:href="#DejaVuSans-31" x="127.246094"/>
     <use xlink:href="#DejaVuSans-34" x="190.869141"/>
     <use xlink:href="#DejaVuSans-35" x="254.492188"/>
    </g>
   </g>
  </g>
  <g id="axes_10">
   <g id="line2d_10">
    <path d="M 233.038333 397.893333 
L 255.136667 442.09 
L 277.235 464.188333 
L 299.333333 486.286667 
L 321.431667 419.991667 
" clip-path="url(#pe4eeb84be9)" style="fill: none; stroke: #1f77b4; stroke-width: 1.5; stroke-linecap: square"/>
    <g clip-path="url(#pe4eeb84be9)">
     <use xlink:href="#m6b847cbcac" x="233.038333" y="397.893333" style="stroke: #000000"/>
     <use xlink:href="#m6b847cbcac" x="255.136667" y="442.09" style="stroke: #000000"/>
     <use xlink:href="#m6b847cbcac" x="277.235" y="464.188333" style="stroke: #000000"/>
     <use xlink:href="#m6b847cbcac" x="299.333333" y="486.286667" style="stroke: #000000"/>
     <use xlink:href="#m6b847cbcac" x="321.431667" y="419.991667" style="stroke: #000000"/>
    </g>
   </g>
   <g id="text_10">
    <!-- 53214 -->
    <g transform="translate(258.1475 369.795) scale(0.12 -0.12)">
     <use xlink:href="#DejaVuSans-35"/>
     <use xlink:href="#DejaVuSans-33" x="63.623047"/>
     <use xlink:href="#DejaVuSans-32" x="127.246094"/>
     <use xlink:href="#DejaVuSans-31" x="190.869141"/>
     <use xlink:href="#DejaVuSans-34" x="254.492188"/>
    </g>
   </g>
  </g>
  <g id="axes_11">
   <g id="line2d_11">
    <path d="M 410.338333 397.893333 
L 432.436667 419.991667 
L 454.535 442.09 
L 476.633333 464.188333 
L 498.731667 486.286667 
" clip-path="url(#p44cb90ab98)" style="fill: none; stroke: #1f77b4; stroke-width: 1.5; stroke-linecap: square"/>
    <g clip-path="url(#p44cb90ab98)">
     <use xlink:href="#m6b847cbcac" x="410.338333" y="397.893333" style="stroke: #000000"/>
     <use xlink:href="#m6b847cbcac" x="432.436667" y="419.991667" style="stroke: #000000"/>
     <use xlink:href="#m6b847cbcac" x="454.535" y="442.09" style="stroke: #000000"/>
     <use xlink:href="#m6b847cbcac" x="476.633333" y="464.188333" style="stroke: #000000"/>
     <use xlink:href="#m6b847cbcac" x="498.731667" y="486.286667" style="stroke: #000000"/>
    </g>
   </g>
   <g id="text_11">
    <!-- 54321 -->
    <g transform="translate(435.4475 369.795) scale(0.12 -0.12)">
     <use xlink:href="#DejaVuSans-35"/>
     <use xlink:href="#DejaVuSans-34" x="63.623047"/>
     <use xlink:href="#DejaVuSans-33" x="127.246094"/>
     <use xlink:href="#DejaVuSans-32" x="190.869141"/>
     <use xlink:href="#DejaVuSans-31" x="254.492188"/>
    </g>
   </g>
  </g>
  <g id="axes_12">
   <g id="line2d_12">
    <path d="M 587.638333 419.991667 
L 609.736667 442.09 
L 631.835 464.188333 
L 653.933333 486.286667 
L 676.031667 397.893333 
" clip-path="url(#p41ee280be0)" style="fill: none; stroke: #1f77b4; stroke-width: 1.5; stroke-linecap: square"/>
    <g clip-path="url(#p41ee280be0)">
     <use xlink:href="#m6b847cbcac" x="587.638333" y="419.991667" style="stroke: #000000"/>
     <use xlink:href="#m6b847cbcac" x="609.736667" y="442.09" style="stroke: #000000"/>
     <use xlink:href="#m6b847cbcac" x="631.835" y="464.188333" style="stroke: #000000"/>
     <use xlink:href="#m6b847cbcac" x="653.933333" y="486.286667" style="stroke: #000000"/>
     <use xlink:href="#m6b847cbcac" x="676.031667" y="397.893333" style="stroke: #000000"/>
    </g>
   </g>
   <g id="text_12">
    <!-- 43215 -->
    <g transform="translate(612.7475 369.795) scale(0.12 -0.12)">
     <use xlink:href="#DejaVuSans-34"/>
     <use xlink:href="#DejaVuSans-33" x="63.623047"/>
     <use xlink:href="#DejaVuSans-32" x="127.246094"/>
     <use xlink:href="#DejaVuSans-31" x="190.869141"/>
     <use xlink:href="#DejaVuSans-35" x="254.492188"/>
    </g>
   </g>
  </g>
  <g id="axes_13">
   <g id="line2d_13">
    <path d="M 55.738333 597.291667 
L 77.836667 641.488333 
L 99.935 663.586667 
L 122.033333 619.39 
L 144.131667 575.193333 
" clip-path="url(#p162f9a793f)" style="fill: none; stroke: #1f77b4; stroke-width: 1.5; stroke-linecap: square"/>
    <g clip-path="url(#p162f9a793f)">
     <use xlink:href="#m6b847cbcac" x="55.738333" y="597.291667" style="stroke: #000000"/>
     <use xlink:href="#m6b847cbcac" x="77.836667" y="641.488333" style="stroke: #000000"/>
     <use xlink:href="#m6b847cbcac" x="99.935" y="663.586667" style="stroke: #000000"/>
     <use xlink:href="#m6b847cbcac" x="122.033333" y="619.39" style="stroke: #000000"/>
     <use xlink:href="#m6b847cbcac" x="144.131667" y="575.193333" style="stroke: #000000"/>
    </g>
   </g>
   <g id="text_13">
    <!-- 42135 -->
    <g transform="translate(80.8475 547.095) scale(0.12 -0.12)">
     <use xlink:href="#DejaVuSans-34"/>
     <use xlink:href="#DejaVuSans-32" x="63.623047"/>
     <use xlink:href="#DejaVuSans-31" x="127.246094"/>
     <use xlink:href="#DejaVuSans-33" x="190.869141"/>
     <use xlink:href="#DejaVuSans-35" x="254.492188"/>
    </g>
   </g>
  </g>
  <g id="axes_14">
   <g id="line2d_14">
    <path d="M 233.038333 575.193333 
L 255.136667 597.291667 
L 277.235 641.488333 
L 299.333333 663.586667 
L 321.431667 619.39 
" clip-path="url(#p30754283d2)" style="fill: none; stroke: #1f77b4; stroke-width: 1.5; stroke-linecap: square"/>
    <g clip-path="url(#p30754283d2)">
     <use xlink:href="#m6b847cbcac" x="233.038333" y="575.193333" style="stroke: #000000"/>
     <use xlink:href="#m6b847cbcac" x="255.136667" y="597.291667" style="stroke: #000000"/>
     <use xlink:href="#m6b847cbcac" x="277.235" y="641.488333" style="stroke: #000000"/>
     <use xlink:href="#m6b847cbcac" x="299.333333" y="663.586667" style="stroke: #000000"/>
     <use xlink:href="#m6b847cbcac" x="321.431667" y="619.39" style="stroke: #000000"/>
    </g>
   </g>
   <g id="text_14">
    <!-- 54213 -->
    <g transform="translate(258.1475 547.095) scale(0.12 -0.12)">
     <use xlink:href="#DejaVuSans-35"/>
     <use xlink:href="#DejaVuSans-34" x="63.623047"/>
     <use xlink:href="#DejaVuSans-32" x="127.246094"/>
     <use xlink:href="#DejaVuSans-31" x="190.869141"/>
     <use xlink:href="#DejaVuSans-33" x="254.492188"/>
    </g>
   </g>
  </g>
  <g id="axes_15">
   <g id="line2d_15">
    <path d="M 410.338333 575.193333 
L 432.436667 641.488333 
L 454.535 663.586667 
L 476.633333 619.39 
L 498.731667 597.291667 
" clip-path="url(#p3ee1e61fca)" style="fill: none; stroke: #1f77b4; stroke-width: 1.5; stroke-linecap: square"/>
    <g clip-path="url(#p3ee1e61fca)">
     <use xlink:href="#m6b847cbcac" x="410.338333" y="575.193333" style="stroke: #000000"/>
     <use xlink:href="#m6b847cbcac" x="432.436667" y="641.488333" style="stroke: #000000"/>
     <use xlink:href="#m6b847cbcac" x="454.535" y="663.586667" style="stroke: #000000"/>
     <use xlink:href="#m6b847cbcac" x="476.633333" y="619.39" style="stroke: #000000"/>
     <use xlink:href="#m6b847cbcac" x="498.731667" y="597.291667" style="stroke: #000000"/>
    </g>
   </g>
   <g id="text_15">
    <!-- 52134 -->
    <g transform="translate(435.4475 547.095) scale(0.12 -0.12)">
     <use xlink:href="#DejaVuSans-35"/>
     <use xlink:href="#DejaVuSans-32" x="63.623047"/>
     <use xlink:href="#DejaVuSans-31" x="127.246094"/>
     <use xlink:href="#DejaVuSans-33" x="190.869141"/>
     <use xlink:href="#DejaVuSans-34" x="254.492188"/>
    </g>
   </g>
  </g>
  <g id="axes_16">
   <g id="line2d_16">
    <path d="M 587.638333 641.488333 
L 609.736667 663.586667 
L 631.835 619.39 
L 653.933333 597.291667 
L 676.031667 575.193333 
" clip-path="url(#pb9628a1270)" style="fill: none; stroke: #1f77b4; stroke-width: 1.5; stroke-linecap: square"/>
    <g clip-path="url(#pb9628a1270)">
     <use xlink:href="#m6b847cbcac" x="587.638333" y="641.488333" style="stroke: #000000"/>
     <use xlink:href="#m6b847cbcac" x="609.736667" y="663.586667" style="stroke: #000000"/>
     <use xlink:href="#m6b847cbcac" x="631.835" y="619.39" style="stroke: #000000"/>
     <use xlink:href="#m6b847cbcac" x="653.933333" y="597.291667" style="stroke: #000000"/>
     <use xlink:href="#m6b847cbcac" x="676.031667" y="575.193333" style="stroke: #000000"/>
    </g>
   </g>
   <g id="text_16">
    <!-- 21345 -->
    <g transform="translate(612.7475 547.095) scale(0.12 -0.12)">
     <use xlink:href="#DejaVuSans-32"/>
     <use xlink:href="#DejaVuSans-31" x="63.623047"/>
     <use xlink:href="#DejaVuSans-33" x="127.246094"/>
     <use xlink:href="#DejaVuSans-34" x="190.869141"/>
     <use xlink:href="#DejaVuSans-35" x="254.492188"/>
    </g>
   </g>
  </g>
 </g>
 <defs>
  <clipPath id="p0cfb8ba8bd">
   <rect x="33.64" y="21.195" width="132.59" height="132.59"/>
  </clipPath>
  <clipPath id="p4ab1cc47a7">
   <rect x="210.94" y="21.195" width="132.59" height="132.59"/>
  </clipPath>
  <clipPath id="p11f8d767ad">
   <rect x="388.24" y="21.195" width="132.59" height="132.59"/>
  </clipPath>
  <clipPath id="p4da47673d5">
   <rect x="565.54" y="21.195" width="132.59" height="132.59"/>
  </clipPath>
  <clipPath id="pb8fec9ac28">
   <rect x="33.64" y="198.495" width="132.59" height="132.59"/>
  </clipPath>
  <clipPath id="p5158628802">
   <rect x="210.94" y="198.495" width="132.59" height="132.59"/>
  </clipPath>
  <clipPath id="pa90ec0e2bb">
   <rect x="388.24" y="198.495" width="132.59" height="132.59"/>
  </clipPath>
  <clipPath id="p014c9cefcc">
   <rect x="565.54" y="198.495" width="132.59" height="132.59"/>
  </clipPath>
  <clipPath id="p41994b2166">
   <rect x="33.64" y="375.795" width="132.59" height="132.59"/>
  </clipPath>
  <clipPath id="pe4eeb84be9">
   <rect x="210.94" y="375.795" width="132.59" height="132.59"/>
  </clipPath>
  <clipPath id="p44cb90ab98">
   <rect x="388.24" y="375.795" width="132.59" height="132.59"/>
  </clipPath>
  <clipPath id="p41ee280be0">
   <rect x="565.54" y="375.795" width="132.59" height="132.59"/>
  </clipPath>
  <clipPath id="p162f9a793f">
   <rect x="33.64" y="553.095" width="132.59" height="132.59"/>
  </clipPath>
  <clipPath id="p30754283d2">
   <rect x="210.94" y="553.095" width="132.59" height="132.59"/>
  </clipPath>
  <clipPath id="p3ee1e61fca">
   <rect x="388.24" y="553.095" width="132.59" height="132.59"/>
  </clipPath>
  <clipPath id="pb9628a1270">
   <rect x="565.54" y="553.095" width="132.59" height="132.59"/>
  </clipPath>
 </defs>
</svg>
